<svg fill="currentColor" viewBox="0 0 24 24" xmlns="http://www.w3.org/2000/svg" width="24" height="24" style="color: rgb(139, 150, 153);"><path d="M4.583 12.997l-2.704-2.704A3 3 0 011 8.172V3a3 3 0 013-3h16a3 3 0 013 3v5.172a3 3 0 01-.879 2.12l-2.704 2.705a8 8 0 11-14.835 0zM4 2a.998.998 0 00-.749.337L4.914 4h14.172l1.663-1.663A.997.997 0 0020 2zm5.36 6.446C10.187 8.157 11.075 8 12 8s1.813.157 2.64.446L17.086 6H6.914zm-1.878.95L3 4.915v3.258a1 1 0 00.293.707l2.313 2.313a8.044 8.044 0 011.876-1.795zm10.912 1.796l2.313-2.313A1 1 0 0021 8.172V4.914l-4.483 4.483a8.041 8.041 0 011.877 1.795zM15 20v-2h-3.204l1.915-1.14A2.614 2.614 0 0012.374 12h-.249a3 3 0 00-3 3h1.75c0-.69.56-1.25 1.25-1.25h.249a.864.864 0 01.441 1.606l-2.652 1.58A2.38 2.38 0 009 18.98V20z" fill=""></path></svg>